<svg xmlns="http://www.w3.org/2000/svg" width="220" height="64" viewBox="0 0 220 64" fill="none">
  <defs>
    <linearGradient id="brand-gradient" x1="12" x2="52" y1="12" y2="52" gradientUnits="userSpaceOnUse">
      <stop offset="0" stop-color="#7C3AED" />
      <stop offset="0.45" stop-color="#6366F1" />
      <stop offset="1" stop-color="#22D3EE" />
    </linearGradient>
    <linearGradient id="brand-text-gradient" x1="100" x2="200" y1="16" y2="52" gradientUnits="userSpaceOnUse">
      <stop offset="0" stop-color="#0F172A" />
      <stop offset="1" stop-color="#1E293B" />
    </linearGradient>
  </defs>
  <g>
    <path
      d="M14 14c0-3.314 2.686-6 6-6h24c3.314 0 6 2.686 6 6v12l4.5-4.5a4 4 0 0 1 6.5 1.733l2.5 9.5a4 4 0 0 1-2.958 4.863l-10.698 2.4V50c0 3.314-2.686 6-6 6H20c-3.314 0-6-2.686-6-6V14Z"
      fill="url(#brand-gradient)"
    />
    <path d="M33.08 18h-2.16L20.4 44h5.088l2.024-5.12h9.136L38.656 44h5.104L33.08 18Z" fill="#F8FAFC" />
    <path d="M28.168 33.36 32.12 23.44l3.92 9.92h-7.872Z" fill="#1C1B3A" opacity=".32" />
    <path
      d="M44.96 20.304c0-1.077.712-2.04 1.752-2.344l4.512-1.328a2.4 2.4 0 0 1 3.032 1.624l1.84 6.656c.368 1.328-.456 2.68-1.768 3.04l-3.168.856V44h-5.2V20.304Z"
      fill="#F8FAFC"
    />
    <circle cx="26.5" cy="24.5" r="2.5" fill="#F8FAFC" opacity=".35" />
    <path
      d="M18 50c-1.105 0-2-.895-2-2V14c0-1.105.895-2 2-2h24c1.105 0 2 .895 2 2v6.5"
      stroke="#fff"
      stroke-opacity=".35"
      stroke-width="1.5"
      stroke-linecap="round"
    />
  </g>
  <g fill="url(#brand-text-gradient)" transform="translate(90 12)">
    <path d="M11.552 40 0 11.2h6.88l7.056 19.664L21.056 11.2h6.88L16.384 40h-4.832Z" />
    <path d="M31.371 40V11.2h6.112V40h-6.112Z" />
    <path d="M43.842 30.88c0-2.112.928-3.872 2.784-5.28 1.856-1.408 4.4-2.272 7.632-2.592l5.12-.512v-.8c0-1.088-.288-1.984-.864-2.688-.576-.704-1.44-1.056-2.592-1.056-1.024 0-1.84.256-2.448.768-.608.512-1.024 1.136-1.248 1.872l-5.824-1.152c.448-1.84 1.472-3.376 3.072-4.608 1.6-1.232 3.808-1.848 6.624-1.848 2.944 0 5.296.768 7.056 2.304 1.76 1.536 2.64 3.648 2.64 6.336V40h-5.76v-3.2c-.512 1.024-1.344 1.952-2.496 2.784-1.152.832-2.752 1.248-4.8 1.248-2.432 0-4.416-.64-5.952-1.92-1.536-1.28-2.304-3.008-2.304-5.184Zm15.712-2.352-3.904.448c-1.408.192-2.432.544-3.072 1.056-.64.512-.96 1.136-.96 1.872 0 .832.288 1.472.864 1.92.576.448 1.376.672 2.4.672 1.152 0 2.112-.368 2.88-1.104.768-.736 1.152-1.68 1.152-2.832v-2.032Z" />
    <path d="M78.374 16.864 81.35 11.2h6.56l-3.872 5.664h-5.664Z" />
    <path d="m83.686 40-11.648-28.8h6.912l7.04 19.584L94.03 11.2h6.88L89.318 40h-5.632Z" />
    <path d="M106.41 40V11.2h6.112V40h-6.112Z" />
    <path d="M118.39 40V11.2h5.76v3.232c.576-.992 1.408-1.92 2.496-2.784 1.088-.864 2.688-1.296 4.8-1.296 2.432 0 4.416.672 5.952 2.016 1.568 1.344 2.352 3.072 2.352 5.184V40h-6.112V24.128c0-1.216-.32-2.176-.96-2.88-.64-.704-1.504-1.056-2.592-1.056-1.184 0-2.144.416-2.88 1.248-.736.832-1.104 1.92-1.104 3.264V40h-6.112Z" />
  </g>
</svg>
